<svg id="Color" enable-background="new 0 0 24 24" height="512" viewBox="0 0 24 24" width="512" xmlns="http://www.w3.org/2000/svg"><path d="m22.72 3.66c.18-.34.28-.74.28-1.16 0-1.38-1.12-2.5-2.5-2.5s-2.5 1.12-2.5 2.5 1.12 2.5 2.5 2.5c.42 0 .819-.1 1.159-.28l1.06 1.06c.147.147.339.22.531.22s.384-.073.53-.22c.293-.293.293-.768 0-1.061zm-3.22-1.16c0-.55.45-1 1-1s1 .45 1 1-.45 1-1 1-1-.45-1-1z" fill="#03a9f4"/><path d="m18.733.733c-.453.452-.733 1.077-.733 1.767 0 1.38 1.12 2.5 2.5 2.5.42 0 .819-.1 1.16-.28l1.06 1.06c.146.147.338.22.53.22s.384-.073.53-.22l-2.574-2.574c-.181.181-.431.294-.706.294-.55 0-1-.45-1-1 0-.275.113-.525.294-.706z" fill="#0393d4"/><path d="m1.75 6h12.5c.965 0 1.75-.785 1.75-1.75v-2.5c0-.965-.785-1.75-1.75-1.75h-12.5c-.965 0-1.75.785-1.75 1.75v2.5c0 .965.785 1.75 1.75 1.75z" fill="#03a9f4"/><g><path d="m8 0h-6.25c-.965 0-1.75.785-1.75 1.75v2.5c0 .965.785 1.75 1.75 1.75h6.25z" fill="#0393d4"/></g><g fill="#90a4ae"><circle cx="21" cy="11" r="3"/><path d="m23.25 19h-4.5c-.414 0-.75.336-.75.75s.336.75.75.75h4.5c.414 0 .75-.336.75-.75s-.336-.75-.75-.75z"/><path d="m23.25 22h-4.5c-.414 0-.75.336-.75.75s.336.75.75.75h4.5c.414 0 .75-.336.75-.75s-.336-.75-.75-.75z"/><path d="m23.25 16h-4.5c-.414 0-.75.336-.75.75s.336.75.75.75h4.5c.414 0 .75-.336.75-.75s-.336-.75-.75-.75z"/></g><g fill="#7d8f97"><path d="m21 14c-1.654 0-3-1.346-3-3s1.346-3 3-3z"/><path d="m21 20.5h-2.25c-.414 0-.75-.336-.75-.75s.336-.75.75-.75h2.25z"/><path d="m21 23.5h-2.25c-.414 0-.75-.336-.75-.75s.336-.75.75-.75h2.25z"/><path d="m21 17.5h-2.25c-.414 0-.75-.336-.75-.75s.336-.75.75-.75h2.25z"/></g><path d="m14.25 8h-12.5c-.96 0-1.75.79-1.75 1.75v12.5c0 .96.79 1.75 1.75 1.75h12.5c.96 0 1.75-.79 1.75-1.75v-12.5c0-.96-.79-1.75-1.75-1.75z" fill="#eceff1"/><path d="m8 12c.83 0 1.5.67 1.5 1.5s-.67 1.5-1.5 1.5-1.5-.67-1.5-1.5.67-1.5 1.5-1.5z" fill="#03a9f4"/><path d="m11 18.25c0 .41-.34.75-.75.75h-4.5c-.41 0-.75-.34-.75-.75v-.37c0-1.04.94-1.88 2.1-1.88h1.8c1.16 0 2.1.84 2.1 1.88z" fill="#03a9f4"/><g><path d="m8 8h-6.25c-.96 0-1.75.79-1.75 1.75v12.5c0 .96.79 1.75 1.75 1.75h6.25v-5h-2.25c-.41 0-.75-.34-.75-.75v-.37c0-1.04.94-1.88 2.1-1.88h.9v-1c-.83 0-1.5-.67-1.5-1.5s.67-1.5 1.5-1.5z" fill="#cdd0d2"/><g fill="#0393d4"><path d="m8 12c-.83 0-1.5.67-1.5 1.5s.67 1.5 1.5 1.5z"/><path d="m8 16h-.9c-1.16 0-2.1.84-2.1 1.88v.37c0 .41.34.75.75.75h2.25z"/></g></g></svg>